<svg width="800" height="737.6" xmlns="http://www.w3.org/2000/svg"><g transform="translate(0, 0)" id="single_state_map"><path d="M203.84902798031908,334.49727833873567L204.32798801289482,333.9242441488723L204.79804980721747,333.62091452391905L205.39231617714177,333.80064414497474L205.56972480228978,334.4410810820041L205.56972480228978,335.1488291257342L204.5851718157046,335.1712896846984L204.03527305039825,334.93541032314306ZM208.03960385041864,337.20012708508284L208.07797750287955,336.8760022749684L208.56849288651938,336.75950691858L208.9823227585557,337.3999284855863L209.25822993768725,338.1565921000524L209.0183482648108,338.68071497947494L208.41518365663615,338.3894458771397L208.39985891298056,337.9820042714441ZM168.7751388705483,347.06069236894245L168.77631294365074,346.7386820163606L168.88154696964375,346.56130703383724L169.35766450944448,346.5993443108532L169.62331399725826,346.85903772718257L169.8087557541612,347.2517189090513L169.59322064983735,347.85349721701914L169.29253434890506,347.9168263346519L168.92665609411597,347.7204335347087L168.7512248552457,347.3847933628035ZM368.0040980122285,624.9924894922565L369.18243485407766,625.1572489861592L369.4696502109882,625.1334564589424L369.6175216286056,625.0003210728669L370.12218768279854,625.0330644333881L371.1139086946423,625.5862449621313L371.9193846364069,625.6899842293969L372.7759018614797,626.0362418000495L373.267035178329,626.4526505221284L374.386791951687,627.785511051186L377.4001432597179,628.2795584730948L378.537078576368,628.0342915240303L378.9768616433066,627.6773328530667L379.4674388202675,626.9089982247242L379.18868914836094,626.6342987478374L379.1614382937132,626.477332914872L380.1500696394978,625.561931990489L381.37543119877773,625.5257606787004L381.7900643839903,625.2765086119498L384.08241122032723,626.1935914414921L384.63626475819,626.707597847821L384.5664383052408,626.8578471629467L383.9087719877707,627.4019957116134L383.51119375920825,627.4736456579271L383.288614216267,627.6903053879178L382.928297360384,628.5299595135907L383.0029436923878,628.8542212234279L382.54567311555,629.4243597563532L382.1754075349563,629.595041003699L381.23787926579826,629.5593399355412L380.3379213359285,630.0286550281953L379.92532733031476,630.1107089306374L378.5532066332007,630.2137778575884L378.4274572245704,630.0824634293513L376.78418743405473,630.1721927657022L375.8501813842058,630.3135660593603L374.16415061542466,631.331777908717L373.1234274998751,631.5588114728953L372.78906383889444,631.8386618046334L372.64490002054754,632.1354118480322L372.2426254995744,632.273686811167L370.8980028303904,631.9537723714075L370.43628313442787,631.962563901568L369.9602891812692,632.3013265416985L367.62468702009664,632.0244022860684L364.7321416550003,631.4722312045374L362.8406480932499,630.7244771592354L362.6120745981534,630.3234031980014L362.2427977106963,629.2020945715935L362.1276767533118,628.6048766254912L362.27381795793553,628.3916773414453L362.6207874564416,627.5080164680521L362.6570601359808,626.8697774767284L361.6379646828482,625.8674035179947L360.19230993351266,624.911115066293L359.752279693289,624.089853473919L360.01069936252225,623.4990907962915L360.39987369940354,623.4820810263677L361.7424571889869,623.8291309529086L363.8326780716998,623.945357084965L365.7753982967215,624.8034844045324L366.21555212358726,625.310443866706L366.89014981106175,625.3753305500409ZM339.6603666869905,629.3118864981875L339.7277832004138,629.1194325911647L340.2676096543655,628.6959686755272L340.8024926426215,628.5063287580251L341.3409596435067,628.4891088143349L342.1324702946831,628.8403565798922L342.9171218872043,628.9425517071841L344.6766249148868,628.6492301196536L345.64325783832555,627.9106853074577L345.89141981624016,627.4107935634929L346.3415841611404,627.3255731785098L346.620210246404,627.3171480037372L347.9052023606346,627.7809632799563L349.44237301865996,627.7854364975838L350.4664737308094,627.4371870457376L351.1357571926628,626.9388237258386L351.1867366826482,626.7289237743744L351.45343665692144,626.4780786049982L351.6097737595428,626.4490711943376L352.34190102905086,626.5924664291151L352.29586500476125,627.4116137016049L352.0614211441498,627.6794949440546L351.9017472021851,628.268152652452L351.9917182778445,628.5240704691946L352.13699437597006,629.2617238242874L352.46227441873634,629.6712870786241L353.4298342419934,630.3386060185799L354.3276911989442,630.7603206973704L354.77927679023014,630.7861785916762L355.9841847601938,630.4582151722743L356.32034042749,630.5228255325492L356.2562607534119,631.5256547973368L356.445101142981,632.4889904195511L356.7983117669264,632.9577160982958L356.8527516828981,633.4077852868336L356.64073879788157,633.5476711878182L354.9556967222388,633.6167191610948L353.9203496256332,634.0031355805604L352.1180856196861,635.2519755295198L352.0294739970932,635.3988203915756L352.0111831740205,635.536577441364L351.94500252702073,635.6268253033295L350.20793047493225,636.0495286082278L348.92213504752635,636.1264416478812L348.4965026511409,636.3924657197608L348.2710806154255,636.7759585506651L347.4875413026848,637.030342003763L344.57355365513286,635.2897295787648L343.9509859441032,634.6266553742321L343.28417421509766,633.1586943380876L343.129752705433,632.9677726108671L342.7427411347953,632.8228827963453L342.6511016394643,632.4732712686396L342.0772270655343,631.32052660815L341.14482764203694,630.0773210949824ZM447.69189991764324,670.1554839334153L447.7254536910523,670.2823470471326L448.5966777265676,670.4057269832624L449.08632800371015,670.2443550289613L451.05345659060185,671.6872274219813L452.42749288067444,671.8093216925995L454.9943256497563,673.0956501047381L455.7181726142244,673.1399174309922L455.8431187096776,673.3009206045922L456.04128989074707,674.6876757762234L458.55219970414964,677.617116409504L459.0698423557915,678.0501450061624L459.4325691512013,678.5777436855496L459.8675323390862,679.7263584715051L459.74950709560653,680.4614502912773L459.0263398576708,681.1406387866682L458.5037537403332,681.2930877707895L457.3911649922338,680.8377263031111L456.33554968627413,680.0912158499564L455.4435013015154,679.7410744403846L453.7025980635153,679.6792523552535L451.4096950872854,679.8465995243687L450.40481209802874,679.6112917472828L449.8450264013318,679.298027710428L448.8243243218458,677.9617515436971L448.39893909874627,677.0351375183764L448.77964775062355,676.0537103803954L449.0357192736519,674.8396855149667L448.6350513790285,672.9292377640336L448.40017496516975,672.359568605877L447.4607928963769,672.0332168633349L446.72162118825327,672.1677427173354L446.69980814587234,671.97095050386L446.2695412503972,671.5520251169323L445.3951657555008,671.2650995202948L444.07680524782427,671.3531407625619L443.7847082185408,671.2819081601333L443.32218520940205,670.913885150836L443.0148252297831,670.2540567157853L441.89834350244837,668.8514554408566L441.45244289671155,668.6547838368379L441.27664089791415,668.1594113676838L441.3171155232958,668.0439893506523L441.60087045422006,668.0557687145047L442.39472925159953,668.3609874608665L444.95334350896337,668.3387632847812L445.80782155443467,668.786787815548ZM383.2025361198448,682.6788626937855L383.8761451141818,682.353698777446L384.17275305591284,682.3388409303202L385.60024056881775,683.2332075826748L386.9757598985989,683.8877167236201L388.03013933813327,684.2375592284961L388.47820271011096,684.5758553058904L390.2644622458711,686.5333090478916L389.35548249110434,687.1964213959218L388.0914383127574,687.4739968486047L387.39292660998035,687.4674970807537L385.8694122759389,687.0945619531167L385.1912305758351,686.9129985007421L384.8294306802418,686.6389447350844L383.07709567781967,686.1462835473253L381.8969050363339,685.1094225946508L381.855503511134,684.9181237302078L381.83245460232865,684.725267458211L381.5464751118416,684.3491442101677L381.0335905459315,682.8045922903461L382.07789767411214,683.3588524707757L382.4980922582308,683.188861743995L382.9677214993062,682.6789366096123ZM446.18914813952324,711.0623941959138L445.49137795660045,710.2681297809036L444.5452604157972,707.4062234095509L443.94259015419175,706.4683487882362L443.1618315409032,705.6366967716822L442.3334302769763,702.756320401907L441.77055491421834,702.2348902371436L441.1203655886138,702.2840432272988L441.1837037428386,701.0820833509838L441.89438872989194,700.7170810054081L443.0606140807877,700.86376252319L443.4404576261686,701.2182906024623L443.7227295173825,701.5305688502572L443.7176624650456,701.9931729714058L444.0486274933601,702.9029558875059L445.22900351480985,704.7712003295978L445.89890490987545,705.5086842138903L447.902059003025,708.2388273825727L448.6141034431439,708.9972672811327L449.00024990728616,709.2315103277174L450.13823571039666,710.0303909759532L450.9941967955783,711.0671041484065L455.73912055010896,715.1981151223017L456.75747448338734,716.4711526814203L456.56980816692067,716.8131413407846L456.3233146086777,716.6212298921455L455.12217603130557,716.2812166084846L454.6644729012214,716.2237126121595L454.22017892183703,716.3229103659269L453.80597828987175,716.5905676555758L452.3003222256566,718.0421233175762L452.06575477840397,717.6867451308012L452.13113211222844,717.5806572471174L451.10857623310767,716.5718172961087L449.1834671046263,715.0156439640332L448.4522049416155,714.8070572231577L447.93375897679744,714.2935053251163L447.2785025988551,713.0479998711376L447.2047831666696,712.8406745408388L447.2605207423876,712.4769932198369L446.1823508741918,711.23261266192ZM326.43066379261836,626.0838199718264L327.81063224152604,626.5095466481357L329.13795278077487,625.3778663379394L329.35305533185146,625.1640361797035L329.598560196956,625.3199904549974L330.07443056347165,625.5009999913327L330.5332459733372,625.520017997796L330.859638295884,625.3852499498489L331.89127779322007,624.5898585916761L332.22483814102543,624.2077905146862L332.2389888115804,623.9516233882259L332.14061384423894,623.6761239729299L332.25789756786526,623.5598928889704L332.63032591470073,623.814210883842L333.07950156646166,624.843613029047L332.75150261756426,625.0998931805361L332.85543898381184,625.516438142125L333.57607269557775,625.7893217457431L334.5514802706266,625.6013100080804L335.30097146338903,626.1321435165933L335.6628949456235,626.535049070621L336.3458965247828,627.5045122942215L336.19629489417093,627.6836700142194L335.4233222393541,627.8576785244036L333.52910977146985,627.7624739468779L333.0586154238972,627.9264903382777L332.8973348555819,628.1415690277581L331.8336864178682,627.8623007931988L329.7188099999985,626.8615008239317L329.3568865177649,626.8579962920071L329.1223190705123,627.1037562082706L328.60405848565824,627.3665059476225L326.95257018342454,627.1684753748432L326.6126451235341,626.910787758758L326.26079395265697,626.3954556044105ZM390.67149485257596,628.9362903463889L390.3861950886212,628.7814687770319L389.759301845108,628.5164668847829L389.5503168328305,628.33561815553L389.54351956749724,628.2126887610261L389.99547591871215,628.0710448972127L390.77011699320155,628.1428363675245L391.3916960110928,628.6651823928264L392.32267418820174,628.8207522202711L392.70999472544645,628.8072602112743L394.15546409481885,628.0106589177772L394.7195753240012,628.075219709066L393.54958058051125,628.4753924620331L392.6131027978154,629.075156929659L391.19327765673734,628.8896281054217ZM532.6793442219487,737.6000000000004L532.1540391984781,734.5598062109766L532.178756526956,732.9882429244717L531.9500594452165,731.3964219357586L531.7770381458722,730.7874667443552L530.5163926001933,728.3218682140123L529.9601909161238,727.4924063507515L529.2495677223915,726.7803067330569L528.4709100820255,726.3325253192907L528.2360954614878,726.2517613562427L527.2288025327025,726.3325253192907L526.5614346638067,726.6775964997646L525.796989487314,727.536377802674L525.7317975334545,727.8200196172111L525.3336013716789,728.1732334253256L525.189561139975,727.6832652736343L524.62724191711,725.4293807172817L524.4788761529235,723.5199582608834L524.6148214595496,722.0948912617346L524.7878427588921,721.5438517320313L524.6395387880275,719.0452971108693L524.2625995287426,717.8544384043198L523.032850643659,716.4501960106554L522.9587604515482,715.1779633787114L523.0205537727416,714.920545123528L523.4716450174592,714.3026998922173L524.0216055760857,714.486588514213L524.2873168572205,714.214431513346L524.5653868025938,713.7142214812088L524.843456747968,712.6181125146459L524.6704354486246,710.7195888286337L524.299675521459,708.4303966410907L523.0452711012194,702.45699689503L522.2666752541736,700.8135668590658L521.25320299327,697.872057204589L520.9129071734533,696.4734545697329L520.1045887389137,694.382953264651L517.9904538409,690.9441613640138L516.2041325118207,688.409747491995L515.5586394786269,687.6094564319019L512.8609284552558,683.551897379492L511.3648503558261,681.4895952571214L509.1491890310908,678.7058460843241L506.55121242812675,676.3809680348782L505.0663807131532,675.3822732692179L503.57357765974575,674.8168176776426L502.8305129723876,673.3596209887605L501.3612531743556,671.567204049767L500.5023260097578,670.8119160927054L498.09226289654544,669.2418918354037L497.8018342869327,669.3731430564135L497.63499231970764,669.6344523985103L497.6720683124249,669.8269464418781L496.1911913700078,669.3434414066096L495.5029991518695,667.6491829463071L493.34635044887546,665.2112764941089L491.89414560749265,663.3433341809423L490.8807351399082,662.9875339291452L490.08360129650555,662.5500779076842L488.4707338200178,660.9706130080654L486.2152158031122,659.5762162108495L484.79396941564755,659.0346641941978L483.10694995372614,658.5970121636428L482.272740117608,657.521117048223L478.5650172593196,654.9754961332983L476.766769819249,653.3347558754908L474.5915831198954,650.7650316515096L473.10848161791455,649.3684055165854L472.3545413060274,649.0489044508627L470.40181056297115,647.6295317234867L468.9062886034335,647.1018308870225L467.756932829222,646.8565466050541L467.4275126339362,646.8970563269204L467.00299251733304,647.9267344072459L467.25022759543026,648.9002195421767L467.39439141377716,650.2933822890186L465.7810295907202,650.3277041468841L462.61653181904876,651.3055766396601L461.4720577172129,651.0567399882043L460.2426177987354,650.9655222116062L459.0005102494115,650.6313182534132L456.68326070463354,649.1826510313567L456.3248594417073,648.8482793190187L454.8108612791302,648.5064589960966L454.09405875327957,648.9151550644888L453.19156729724,648.4642503456612L452.12896934598575,646.0315788324228L452.4379359519562,645.4888764174434L453.5749330619283,644.1356360489954L454.2361215987048,643.8307454866449L454.40914289804823,643.0052367424914L454.37206690533185,641.1083918870418L453.0990626954117,637.9086570856462L451.26367746930464,633.7092288594199L450.13897723025,631.5638035865481L448.6805930567489,629.4325585240822L447.5311754892173,628.1057852119502L446.499165231955,627.2111240489953L445.0407810584529,626.3909814038989L443.42673950886274,626.1574237424452L441.30494223902133,626.3507134568745L440.92923884616084,626.5463834476095L437.30160013214027,626.3627192975323L436.8645977646547,626.4677135043803L436.62137925243496,626.7826856687489L434.9622903716954,627.071396376718L433.344788396118,626.8208630472404L432.568602488599,626.8685844463616L430.19073369572925,627.6559355679328L429.96450834683765,627.8048949574763L428.8509926989191,629.1695218551322L427.833565665459,628.2213363889832L426.6717894336898,627.2097819622345L425.7898133602848,626.7111024630658L423.22501977080265,626.3388567347297L421.25449255124477,625.8436882392502L420.63452015970415,626.027442036268L419.6062175017132,625.670668420003L418.18317910793485,624.8013959189584L416.99495533469326,624.3448214912955L416.52137132106145,624.3233383336847L414.49146071983523,623.0640590007188L412.4853405472695,622.5149853718094L411.33740601944464,621.9299706002371L410.7392466702877,621.8535565063985L410.02442153071297,622.2093517610156L408.76476467817156,621.7962453292394L405.15164739463125,618.8924697412313L404.2556442373161,618.4818340455672L403.75505654232256,618.4519685885903L403.4337312721136,618.3623713692232L402.7353431559786,617.195774063513L402.1545477300742,616.1445091330634L400.9247988449915,613.3429683513268L400.37582697950256,611.7507643078307L400.1152445440275,610.3832622775672L399.590001313878,609.3366166726878L398.8298816698689,608.7384125155208L398.13866157899065,608.8985124809551L397.4649289980125,608.6795611064194L395.9546384347077,607.5662159736817L395.2309150568826,606.5334638251707L393.92281224052294,605.4035774809017L393.58764526636696,605.2814720499073L392.817144344398,605.5597971438478L392.68119903777097,605.4999433260964L390.375010497487,602.8944025158321L390.1713397108306,602.723670328031L389.87337231603215,602.6831011022173L388.31939387464354,601.3187894057096L387.5999960293011,601.2016955503077L385.25327107031353,600.403018203187L383.62798313626627,599.7140987839407L382.2375098227549,598.373484161868L378.69038780625124,597.8041978910269L377.3308111533388,598.2011307135244L376.7252366056364,598.0737913518965L375.2915079672921,598.1711687436723L374.28421503850495,598.4407464115998L374.50055345600595,598.7553264114131L374.0628713619881,599.1405156002797L372.992734625549,599.7214376724173L371.7382066186665,599.6839942739366L370.74327235411965,599.1596883108891L368.2467603845571,598.1785843445564L367.6967998259306,598.0587351738936L365.1632736569718,598.1936402344959L364.0509938754785,598.7778707048501L362.8027687873573,598.7180270368317L359.6354903162328,596.8350937216696L357.70716793504835,596.7334249831924L356.74825917675935,596.0326374715555L354.51591365530203,594.8481709224525L352.61570723526256,594.624306584316L351.88320920582737,594.7579366456202L349.54068619268037,594.866082721283L349.0079659706653,594.7460951738317L347.69800935467265,594.1376531907631L346.2919641242206,593.8769598889439L343.6756349048628,594.1042988459412L341.0807479679579,594.0881837616889L340.3080842797481,594.2747414280802L339.0865539063834,594.3232350169005L337.5274466193341,594.2555537528224L336.7828370989455,594.0854854179429L336.52837220226684,594.152344036785L336.36443452114054,594.3512666881379L333.92069404787617,594.9724282868601L327.70391517582266,595.5177675293398L327.11996829053896,595.8488297917661L325.8871297393953,595.7924800050114L325.5637034962665,593.7475836184353L325.3312370219328,593.3032164637639L324.70397301849243,592.6273100646149L323.41261619217767,590.161911355854L322.58736638763,589.5365211466033L319.09499325370325,587.6109041119325L317.4227423955481,587.6336386798298L317.19719677319154,587.8656315828525L316.544041368169,587.831643510965L315.6029290863826,586.9159967256996L315.1126608760287,585.8041790568032L315.4522151759902,584.0498583511385L316.3863448124821,581.790981115852L317.8172927513733,577.4631645159529L317.9112185995882,576.5202860355807L317.835707161089,576.138358903348L317.02127118775115,574.5604903379103L316.3126253802966,574.0068483217196L315.62702848164827,572.6664889775329L316.51963300629814,569.852545483252L316.93204163194605,568.1210409069013L317.3273953009466,566.1304324595494L317.3046553587483,564.9686539196555L316.9302496256323,564.3240812091744L315.5115985576567,563.2941619558815L315.3306059198803,562.2597017183289L315.0144712886513,561.7332146988415L314.0529054175504,561.7294474580231L313.56189568734226,561.5085324457568L315.46791067957474,554.0560899556103L315.86462380163994,551.7833145216296L316.08948969746507,549.6374359085635L316.1109937732399,548.3654822844701L316.0260897499202,546.5848194838741L315.72762800855344,544.9332115110606L315.2009017386945,543.7385713168078L314.77928590818647,543.1225356314699L314.07848785252463,542.7001467542655L313.7374505128537,542.8004374537536L313.29995379880074,542.7225176925713L312.5646132765887,542.1445504826329L311.82729536810257,541.3520719129415L311.4999761457366,541.1998232964679L310.8831552135771,540.9887554209854L309.64444629692025,540.8017214536321L308.73985386795994,540.8529031009471L308.37199822689126,541.0868061199662L308.2460016449768,541.5020489878693L308.293953262224,542.1633709846983L308.0216918890419,542.2199833122927L306.87814468702436,541.5255581673432L306.4407715596126,540.8626555378328L305.25545207246796,540.3102198560682L302.69621988189283,538.8390334785386L302.11703108233996,538.6833949839097L301.066606415362,537.2311082793549L299.5993857969297,535.5523931281105L299.5940715713059,535.0898316529456L300.0588809333276,533.2863940941265L300.6634667878916,532.0475431367909L301.42785017106144,529.5509119808908L301.7069088095741,528.0645658623371L301.74095692955234,527.0048447335002L301.495884617696,524.5583069859476L301.30370738878355,523.7827316095431L300.34294483085796,521.7415526694122L299.59493667780316,520.8278813711372L298.9105756455783,520.3101216475698L296.5247973075957,520.4886801370731L296.26551253186335,520.3896923247589L295.94906893403095,519.9555681965771L295.1103481854616,519.4659562546681L294.6971980399576,519.5546415908643L293.0141333505944,519.4270374752841L291.6384904341721,517.6144977856152L289.9417076275031,515.8739892218778L289.5194738637847,515.7114647814701L286.94380464977166,512.7393346587633L285.434070226358,509.3781378699091L284.9688283110854,508.81600990758307L284.3505861325393,508.391092715206L282.92000895357523,506.1597711068216L281.54912412288286,505.57134048071475L281.1540176271683,505.75413340546356L277.70947252384576,504.54451077988733L276.3940163022653,503.7786290369554L275.6272229795686,504.09830324036557L275.61226899583926,503.21590679046903L275.31436339436186,502.0505149106507L274.90164580210694,501.487784605511L274.40050196722314,501.10960904238345L273.7795408825432,500.2332468489699L273.70823138988453,497.24843415620626L273.0573623377477,496.86687203853035L273.1439347807418,495.9670486919481L272.67856927882804,494.91909166336154L271.17773309366567,493.3131010829002L269.2426134471516,491.84272152503627L268.0827528083373,490.2314164527779L267.69203363842735,489.416225219044L266.8387296660585,489.05124800053727L266.0583418126989,488.5291710389197L264.6568692880164,487.1055253459281L264.72094896209455,486.244525133603L264.583458822437,485.6716265377422L264.02836941814985,484.49102461598613L263.17778435191485,480.6396831666448L262.132735703879,478.3524290003229L261.608851926796,477.8712856428515L260.35531261305186,477.2777283372943L259.005746478173,476.8628910073021L258.0234798444708,476.7298772593085L257.71513117171344,476.45352626331487L256.73922925009447,474.52727404813777L256.8141227553806,474.2664906506757L256.58734126659965,473.4037306539599L255.72272911645086,472.86837045422135L254.99189950668915,471.66782220134246L254.78569519386474,470.7556672927276L254.31452111975977,469.626982179886L251.19327867292395,465.696612555354L248.90501019578642,463.45136837411474L245.03211378994547,460.98061288010376L243.96877431883695,460.45938854899987L243.3557845725918,460.55928573173287L242.93837068792618,460.4575499349289L242.15415164865226,459.87337834640357L241.5757661622747,459.1923730275016L241.35547297221729,458.4467642058489L240.575826638712,457.11677516762256L239.16508511584925,456.2556847316391L238.31888737541703,455.2017860483338L237.80791840246366,455.03861679106694L237.6298300507824,455.2122140073984L237.43907406825656,454.9281222985546L237.93434753762813,454.051838634402L238.04539013581234,452.3166833231753L237.27118161457201,450.94788533895826L237.44278166752883,450.5157216369498L237.4956767504691,449.1359954363925L237.41027838058108,448.2360622319261L237.2581432238003,447.88269925350187L236.71924366966596,447.41146487449623L236.5286112737831,446.60794667594564L236.69687448739478,445.7570130690997L236.03197835134597,443.60414093929876L235.30868752676815,442.17732328566626L235.0371058801211,441.1695090030689L235.18442115784728,440.30142545575563L235.21241353234927,439.56905926104537L234.90869935867886,439.15552120822394L234.27803672257141,438.69766669545606L234.21432780842224,438.2880665618818L234.57538618415856,438.27484078252655L234.84764755733977,438.3821071567859L235.82997598436123,438.2832222391362L236.0049746699833,438.12743286781097L235.59893075641776,435.4537712163419L234.97945271144727,434.9537010178642L234.5391135046175,434.86391472820014L234.4278237331473,435.1403475241591L234.06478797113232,435.10395730096434L233.12188368303123,434.4201181815106L232.75124734250858,433.87240538770266L233.25578981005856,433.6980316006575L233.6492896794216,433.0964566134844L233.91895573311467,431.68112601294115L235.0330275209226,430.98057110698846L235.22551371644022,429.760253360168L235.35657735069435,429.541710759795L235.77454737525113,429.52530818913374L236.13294863817555,429.71012326371556L238.2155071490597,431.6580321139977L238.28347980237322,432.23535264107795L238.4256044411204,432.2584442946236L239.37722158750967,432.0198262107824L240.04211772355848,431.5135392469024L241.1754690275793,430.0566360134844L241.8099628496002,428.91714894586767L242.23899387865004,427.9658557656712L242.89338515009513,425.98968820078017L243.35065572693293,423.5775026055758L243.43834044970663,420.79547575917286L244.51138147224174,416.64838167672315L244.30956448522284,415.78457454282716L243.2084692948647,413.2007347994754L242.07758972369174,410.82967620459976L239.93941722373347,406.7958607791584L238.8332549810384,405.35790663885746L237.93725182372327,404.4531585590453L237.20802884031218,403.9041329589104L235.74964466680922,403.19254311016994L235.16872565426365,403.20027824488307L234.41484713569753,403.71077466330007L233.11094626518025,405.04860669278514L232.91938696947727,405.05633938940855L232.42349556689442,404.6947476319374L230.66380715925152,404.24442813593714L229.98408062611543,404.4300353975582L229.7492042122558,405.2806604991024L228.3311710774933,405.4837870663059L227.32400173535098,405.5032720025906L224.8797669155192,404.90941641731297L222.74159441556094,403.44006237935946L221.8455912582458,402.98369063028895L219.8805018509529,401.23522727420914L218.68782895858476,400.4227886607255L215.84527439033627,396.90066537981374L215.33238982442526,395.886189697811L213.82457099396834,393.62436224846306L212.5110303653446,392.4902931380798L212.03101984630848,392.352510040329L211.47092518300633,392.561818183538L211.0079696206194,392.5712721329737L210.59963935416908,392.4128777238343L210.48933827583733,392.1438144054805L210.59877424767183,391.3733664102051L210.5525528434182,390.97488860678914L210.16968142530004,390.34212060128175L209.1956950966378,389.45250213197414L209.0721702475721,388.8307356652049L208.7449746118491,388.11545593956544L207.99202299309854,387.47090047271604L207.29196645729098,387.32663938754104L206.89241084245077,386.9961440151719L206.39756992632738,386.3335458462502L206.26730960525128,384.496774954735L206.1560198337802,384.0472314972226L205.7333535168118,383.45888501789295L205.5299916967624,382.7889780848359L205.5708370820712,382.2416480886832L205.98893069327096,380.89674221353516L206.629294880805,375.36845518942664L206.65852312173047,373.641584615129L206.138964877131,372.4302316034009L205.2721281674185,371.05086441504045L204.01148262173956,367.6744432900923L203.86935798299237,365.681857642483L203.4924187237084,364.2026222713307L202.5160224555193,362.8319754427084L202.2379525101469,362.645044030784L201.40374267402512,363.1044950995906L200.91551364327097,363.28362367244563L200.5756503767043,363.04997661290054L199.5004465879265,361.0247200277895L199.32470638245104,359.78097080892803L199.50662592004574,359.185806308833L199.6178538981958,359.09228270944095L199.68588834482944,358.6168477991964L199.41399773157536,356.7537811648408L199.46967351397143,355.62320801165197L200.44606978216052,354.92131376102725L200.73031905965308,353.94639777078646L200.89722282019738,351.45754809795426L200.73044264629425,348.1478819403078L200.13110922403393,345.23476661126597L199.79124595746634,341.5306073368015L199.63676265448066,340.7723527776657L200.20359278979504,340.1872740732906L200.97149839227313,340.2172214083207L201.41023097275138,340.00610111521473L201.88603954594691,338.4264419346896L202.3647524052376,338.5951503384167L202.76906610580954,338.9094025517934L205.10800510632725,338.41463137970095L206.25056361520546,338.37849562437395L206.82604481548606,338.8329918770705L207.61798801991063,339.9986726681168L208.02230172048348,343.01000795822165L208.71438691785806,343.94691442585736L208.20310897829677,344.3559672850556L208.55903850837694,344.56286591108847L208.70715709927845,344.3587801558715L208.84427647900793,344.38393966178046L209.3815076134697,344.783664213629L209.0747037737401,345.91604113527546L208.5394500255561,345.7159089513784L208.11678370859045,345.9514267850327L208.03348631161953,346.414076203077L207.2873319582004,346.4136075578476L207.1318599620763,346.50022817288936L207.47567800120123,348.7235677577132L208.29969193932448,350.03931777026037L208.2188044818813,350.805568954861L208.07729777634722,350.9588538630992L207.4908173648937,351.1120566734221L207.57170482233596,351.9548728766158L208.84569772539635,352.84859243114033L209.47259096890957,353.6655691101869L209.2703414286416,354.0229212237805L208.5423543116549,353.76768310447505L208.36037298073643,353.81870042364653L208.03682315096466,354.4568470559698L209.1692475551681,355.47784488350044L211.79812081872842,355.6054277386156L211.93968931758263,355.8861625323775L211.9194211082331,356.1668057725583L212.52610793571603,356.80477224016977L215.19539403133695,357.00888799319273L215.86276190023364,357.5191459858779L216.3278184355413,358.1568859474164L218.18829175005249,359.68722300191257L219.28024152887428,359.7892311416972L219.38133540234594,360.9367577884004L221.01935276055974,362.3644019674243L221.80802091896112,362.5937926192223L222.18211768546917,362.4790594785627L222.76853630360256,362.07120495225263L223.33474850570383,362.4026473531776L223.5369980459718,362.68297601567747L224.54806036734863,362.09667722405175L224.50764753528892,360.43950068317827L223.47631700455986,357.9655946975313L223.15276717478628,357.78700374038453L222.930311218488,357.42980534926664L222.50566751524093,356.30716129189705L222.3438926003555,355.7967967629356L222.44498647382898,354.82701949825014L222.38430543241702,354.3165247802499L221.9798681452021,351.71226362341804L221.3530366950081,349.59225858947366L220.86765015702895,348.9535762301148L220.36211899633963,348.64697431466857L219.2296945921371,347.6503864594056L218.82433040510296,347.2626523715121L218.21857047743833,347.19033494359246L217.73324573277932,346.65362705567077L216.17617762533064,345.3754652384164L215.60996542322937,344.30166298318227L215.48860334040364,343.99481456538706L215.53921207046187,343.5728421060635L215.8424936908823,343.3682525250433L216.29284341574385,343.15920107322654L216.35408059704696,343.043144949067L214.62646292310365,342.28274386852036L214.41000091895967,341.8260956328695L213.7468967892264,341.66131195930075L213.2613866646043,341.58642294983747L212.6218875835666,341.2568372392716L211.72192965369504,340.91222183423724L210.9877632045891,340.53771854644765L210.92856520288387,339.58203878739005L210.6859028305562,339.30051239797785L210.8072649133819,338.5070815686554L211.4340963635732,337.45758328156353L211.79812081872842,337.17595330655195L212.50590151968572,337.1247108199532L212.64747001854175,336.91989279681957L212.70617367367504,336.41837871975804L211.9070624439937,336.39373220887455L212.01322336980502,335.9634575905138L212.6503743046378,336.12480455075183L212.71414501210893,335.5062312007526L212.37428174554225,334.34950499209026L211.84335352984272,334.6723629393673L211.3336204233119,333.4616894402193L211.73713081070946,333.3809792748798L212.07693228395692,333.7845970850958L212.24686391723935,333.7576692355119L212.18315500308745,333.03119607485905L211.22739770417957,332.33148771373635L211.22739770417957,332.0355130010421L212.20441190557904,332.1969698735561L211.92825755316335,331.68556985341957L211.4610382516139,331.87397330184785L211.24865460667115,331.7125073821062L211.42402405221947,330.9898488999215L210.75665618332278,330.75912415007815L209.3613629907586,330.75912415007815L209.03781316098684,331.11797311531336L208.71426333121508,331.14358195371415L208.02668904628808,331.0410676016163L207.58183892701254,330.81042322132544L207.37958938674456,330.65660295845964L207.2987019293014,329.6825998134068L207.01562672491127,329.32366143478566L206.63139585372573,329.2211146955401L205.86293411135648,328.5288568582587L205.63763566228226,328.039070997555L204.85187178997785,326.50292130312073L204.87207820600815,326.3234341545108L205.761840237883,326.50292130312073L205.9842961941804,326.7081097975265L206.19303403317463,326.939545489819L206.72142872270433,327.05984448532945L208.71426333121508,325.322984662354L209.06506401563456,324.39606343063815L208.9973385356052,324.0523205965942L208.7546761632757,323.73216024111116L208.6333758737719,322.98795182584763L208.69405691518477,322.6285956394636L208.95692570354458,322.50028231435454L209.21410950635436,322.8316479775949L210.4128999375198,323.3215635888405L210.9184310982091,323.1932657279517L211.5857989671058,322.6029488896688L211.92955521290787,322.55165504684464L212.83952366081303,322.7569845293374L213.91132881692374,321.83294409846667L215.18532171998322,320.11278693005124L215.18532171998322,319.5734744649426L214.55842847646818,317.77563590315685L213.95174164898526,317.107670061454L212.7789044127203,315.3604175483665L211.99023625432164,314.56367972194903L208.79515078865734,312.50712127791576L206.9347392674672,311.8385416301494L206.4898273548706,311.7871515077027L206.10559648368508,312.91849197989404L204.26545317184627,314.4351860591246L203.59808530294958,314.48655245306054L203.31501009855947,314.2809270284665L201.49501140942994,314.5893624010773L201.15125516362605,314.820736949664L201.0703677061847,315.12914329879277L201.15125516362605,316.00283200734793L201.3534429105739,316.54247995127344L201.53542424149055,317.9811361437414L201.00968666477092,319.1883211714544L200.56477475217343,321.08841131119925L200.66593041896886,322.0895976769016L200.8681181659149,322.4232615713786L201.67699274034567,323.0135968582954L202.82968535390228,323.3472071334254L203.43631038806416,323.9118066616011L203.7194473857753,324.52762744618894L203.7194473857753,324.80987620666883L203.21385443176587,325.2716366789309L202.84989176993258,325.06639695640024L202.2634731517992,325.0407610756092L201.23214262107012,326.22083396432345L201.1309869542747,326.374694374098L201.1309869542747,326.81070130172975L201.29276186916195,327.6313675190836L201.73767378175944,327.88784090175477L201.8185612392017,328.1955468689739L201.41412395198586,328.50323639404905L200.56477475217343,328.3750540112301L200.3423805891971,328.5801757939007L200.3423805891971,329.1954973106649L200.92879920732867,329.73383013694684L201.3736493266042,329.73383013694684L201.87924228061547,329.99020991116095L202.2634731517992,330.6309919558703L202.24320494244876,331.2460944823165L203.0925541422621,331.9124206305737L203.7194473857753,331.9636311345257L204.28565958787658,332.70668037681617L204.34634062929035,332.93732718705724L203.6182917189799,333.7058484270051L202.87009818596198,333.88518401592L202.12190465294316,333.4497121543732L201.71746736572823,333.52650726146476L201.5556924508419,333.88518401592L201.5758988668722,334.2694334247226L201.98552679306795,336.7300893177676L201.82004427891115,337.2843824733841L201.55235561149675,337.1826812939139L200.19908187734745,337.54253896018463L199.0743198449727,337.33132087504464L198.71177842952602,338.10872176905787L198.22775134461426,336.90103790764033L197.5047076933215,336.43950421674936L196.73222938507297,335.218793087593L195.32321807520566,334.6396474901053L194.2726698215838,333.3951486485048L192.67698088839006,332.53756483658526L191.8820716045475,331.6551866758041L190.85988648535567,331.0936955181751L189.5032141185393,330.9304064414541L189.27476421008578,330.9424672797104L188.57044393511478,331.35588815528445L188.00991671856264,331.93152674335715L186.48627879788,331.08531580767885L186.14017440587122,329.8635489189164L185.89300112109504,329.4248746080052L184.7987649893903,328.6647922769025L184.08616440938022,328.47072096189004L183.02912785703302,327.42621193246123L182.50419359348962,326.00857352455796L182.15407263560428,325.4414360487481L180.67239238001184,323.86726804603313L178.49788540719146,322.3001987926168L176.91962219057223,321.6290720406587L173.36051226975542,321.1085732525876L172.30384647733717,321.3586695862805L171.34190984630823,322.02331751722613L170.76117621372578,322.8961150068867L170.7234822877981,323.27607934466414L170.86183753395107,323.5460779576879L171.0708843395505,323.949993545029L171.21758168406632,324.2049060598738L168.14793666042715,324.01287981073483L168.36446045789216,323.64700070188974L168.62763821285807,323.4786383069036L168.92239235495254,323.34163927872214L170.10344810293554,320.3357789768738L172.05185331350822,314.7462834289927L172.59581991997948,312.7353586683985L172.78194140341657,311.51762084251595L172.74783149011637,310.7332380586945L172.50047282537616,309.81920745862817L171.77260929503154,308.91965392875954L171.71316412004217,308.02326154508637L171.6055201545223,307.71549479271835L170.13230558393388,305.29642554375914L170.0083481816173,304.9489400184161L170.05308654616329,304.7849843454819L170.42916069895,304.9539750510812L171.57728060673708,304.533770591921L171.6616902834885,303.91910400954976L171.05123406341136,302.56466876649984L170.48044915554055,302.1505068504807L169.9685532827698,301.3686964122003L169.81388459982008,300.86784701392116L169.38034265832357,300.2731002206874L168.13143784367003,299.20525073635736L167.2410578785839,298.9687550365852L166.47982595479334,299.19580054659446L166.3305950841086,299.58726156564353L166.42050436644604,299.8609769692621L166.328864871115,300.08625475017107L166.0362734952614,300.1673557260706L165.70061217453622,299.8663314551022L165.02008232822482,298.2600755765666L165.4061052057241,297.26471993463065L165.4167336569708,295.3221107091208L164.34727664706315,292.905434184358L163.2267165605299,290.9328687657053L162.07284987387266,289.21546488579634L161.6745301254541,288.18160199852673L160.65494032575134,287.4711069206601L159.3509158685938,286.2458390616548L157.1356870971067,284.71698200154196L154.19926847396164,283.3958834186983L151.89073178747276,281.0912209769067L151.27310754213704,280.83611675108705L149.1259132172836,279.0906089692253L148.4190594161446,277.1567280468421L148.03136811897275,276.61935168705713L146.65560161590747,275.79464842616426L146.19666261939892,274.63068774417707L145.03105520171448,272.64583617977314L144.73172835385049,272.45554947394976L144.56779067272237,271.87950753726864L142.8958487811742,269.4732663900777L142.33637205108244,268.47467939343596L141.13035180133738,267.10813574132L139.35502968343008,265.90325747664247L137.82484167070015,265.13062855504404L137.18416851656002,264.1929226582747L136.66615510499014,263.03537239595744L136.15314695243615,262.3730839972304L134.29007831843592,260.67460478736075L133.8038266739577,260.3062231017625L133.4006870464882,260.3044786629912L132.54540568784068,259.4117310960346L132.46210829087158,259.02510493969794L132.23050692303605,258.72569932280294L130.17155346084837,257.05190796763554L129.92197023654626,257.04080058567115L129.6308619004003,256.9244097759315L129.33270912563785,256.20157466718956L129.1792145157915,255.32420934973425L128.86097891164263,254.7772947766357L127.11513220794495,253.10511050845025L125.7284282870296,251.54591659832204L124.81221871368325,251.21172480989526L124.67238042782174,250.25367264034685L124.75363864519204,249.7081725515227L123.97683480446176,248.29766657683376L124.34722397169844,248.22821666954496L124.58444853176388,248.0952741262231L125.06062786488474,247.5221469682706L125.69079615442115,246.45417246817578L126.57128918811668,244.30083701566355L126.95193604667111,242.95745696902668L126.99179273884147,242.1728483871948L126.75240541253606,240.08782191265664L125.55219373498403,236.0231936423147L125.0508645201362,234.6767970553642L124.15912510198359,233.53626866802642L124.03695970598255,233.2336714715716L123.77075407827942,231.52494178058078L122.60971936636179,229.395771610486L122.30810616561484,229.23136698777944L121.74535438949988,227.76203559273108L121.59890421826913,225.7574104838004L120.9485295127015,223.59388171668797L120.26274723408824,223.03293372574672L119.96261707304893,222.44095605516577L120.09182690766738,222.0610387759316L120.01001255040592,221.40500400446535L119.49675722456777,219.72181132261494L119.65834675948918,218.7998252631287L119.12710957718355,217.64686901508003L118.8356922744324,217.2428146600164L118.63511115383608,215.88773675509992L118.5748626656723,215.256634639431L118.82086187734512,214.35517621797862L118.84792735202882,212.21049956953084L119.2926538846632,209.03226781152534L120.46987844673276,205.37596767071545L121.17858604750654,203.9982189228176L121.52765651893333,203.0322940849892L122.2720188660378,200.52238034913216L122.22660077495948,199.95742347049645L120.97794313359009,196.37351086630724L121.2175158398586,195.97528927841586L121.29278010507369,195.01518914509552L121.04325867409261,191.93009752223634L120.65402254388937,189.98809612370587L119.69319819264365,187.85239387286947L118.67138383337897,187.25690399393943L118.37471409832597,186.85979484177415L118.24779061659228,186.2525476137548L118.0319465456605,185.59854550889713L117.84675196204171,184.50226186205055L117.90477589064449,182.5871625863292L117.74120896944169,181.02673052660975L117.00481796077202,178.0981541120941L116.87814165232521,177.9324682934489L115.1668374151759,177.02130870300107L113.54748163996283,175.60413365503928L113.08539118407316,174.61505108041683L113.0414561327052,174.14794285751623L112.16436173167494,171.84580474640325L110.62539906733582,170.82454419103988L110.14940511417899,169.59468785664376L109.07568436510974,167.59379234364815L108.09755788392886,166.74019020605056L105.62310613003137,163.49179396368982L104.35609587226736,162.60535904264407L103.82090391740621,162.56662569897435L103.58367935734168,162.84727488541603L103.36116160772235,162.73834144863304L102.89931832511684,162.1641055711425L102.85445637393059,159.23090448238418L102.46040036467548,158.23508327011177L101.01054366949847,156.1896603716359L99.19363464642811,155.17284487851566L97.28947345383222,154.53793664221848L96.23237510816398,154.02596470376557L94.56265777617864,151.57171595467344L93.56160597283451,150.70818358963925L91.87403037102285,149.6813744220167L89.52019918009773,147.69619899595682L88.01151524314264,146.25566980033545L87.59261831876847,145.3853099692692L86.64229883212465,144.8503015432675L86.04630224920766,144.32617092372175L85.38517550575125,143.47429099063356L85.37158097508836,142.24024308435492L86.34674137685306,139.12740598790378L86.02102878083952,137.76649259112764L85.8065441629742,137.4753974850346L85.42336377824904,136.25686135018123L85.26511108267096,134.24491229066052L84.75581052938924,132.77917557223327L84.41699774928202,132.3000569175333L83.64989545997832,131.63311545830584L82.96232117505133,130.41100310843376L82.531745312971,129.11449238615432L82.59292070095307,128.6983844491774L83.33190702911452,127.16212334845432L84.05501247372831,124.91184637062906L84.16104981289664,124.09667274578487L83.92629698567998,123.68205103974469L84.18626148794283,122.54041875335679L84.41613264278567,122.2262369094301L85.37708058067528,120.12583374018004L87.48676635956235,114.61489898453783L88.36812449975423,112.73444295400031L88.5277366483997,112.58729116399581L89.97611030386724,109.46766412113311L92.49190178964182,104.94058328910387L93.73777873155814,102.1488925428639L95.36436432535083,99.23355582489421L96.92192677936964,96.0890842005333L98.05849133609263,93.43772511897396L99.37197017139351,89.37756814841532L100.54103801506608,84.17919346054077L100.91068566244849,80.99293956792962L100.08988497702649,79.32732999925929L99.62655865471334,79.00137364440252L99.30084605869888,78.84895893354951L99.01350711514715,78.87436168461227L98.74476796127419,78.9684327654677L98.63829806885678,79.08454437090359L98.49450501043793,79.11453468264881L98.34891994570444,78.9138586275426L98.32383185729941,78.39160699139438L98.29386209652057,76.15911347294104L97.92044505654485,75.18733411160929L98.0125788984451,73.30542745497223L97.6202531021836,72.66023134333136L97.70837037820638,71.9338932694418L98.04508218539286,71.57729292127306L98.59287997777938,71.75584220675364L98.95585394647333,71.44066917755208L100.26111427005708,67.74353620498778L101.230713272912,64.46192532428176L101.26760388566618,63.55771738401745L102.1391986811077,59.692903743294664L102.95913426003335,54.80251102594002L103.37444717177823,52.521242987868845L103.94405800654567,47.18785262347183L103.75985211606621,44.65841178241226L103.15056996909152,42.06011734356207L102.81008876931173,41.278624909887185L102.77548450944323,38.263060237613445L102.13178348256497,37.77969174772579L101.59300751507362,36.493275722096314L101.57570538513846,35.72245022846255L101.82399094969696,35.16672928933758L101.34725547668404,34.41785600310686L101.60301803310722,33.7415985143457L100.77177427640345,32.56232221987102L100.67142192278334,31.5636714784755L100.41263149362294,30.612460594401L99.46552525968127,29.210510190964214L99.2305870525015,28.023943472828705L99.29120630059424,27.42588643603085L98.9756896025765,24.909902663077446L98.73265647031894,24.192120718421847L98.3103609132786,23.29415679195472L97.66338484037624,22.356373605181943L96.8802162875636,21.890111677433197L96.3875381376829,22.42055388450308L96.03673745326341,22.69151034555398L95.79494018743117,22.633626857685613L95.24559756201506,21.784182531573606L93.02863857753346,19.815537226082597L92.86995332870902,19.71329520723566L92.47348737992706,19.760936587155356L92.02301406842253,18.803470032205496L92.70070142195891,18.033891543776463L93.58737378777278,15.846954155966614L94.27241454652994,13.545473718188077L94.96159545780756,10.080299198189095L95.27284841666187,5.69812591964228L95.17731594209545,2.1682117355667287L94.76595780290609,0.9195426843889436L100.04378715941584,1.0416041600219614L101.6054897659551,1.0445974578392452L101.64905405739682,1.0540762230953078L102.41461151367002,1.0500020190579562L102.48666252618114,1.0518312539124963L107.76832306860524,1.1119462111182656L118.0865718415962,1.1144405929267123L118.873571580325,1.1679032270008065L119.33578562285766,1.199248874795103L120.86189527638817,1.1148563231140542L124.63987714087398,1.0403569520967721L129.03696629040314,1.1958399406644276L131.04178880322434,0.805045130497092L135.490537169273,0.7710363020910336L137.17842173768986,0.7044315819057374L138.61499286880917,0.7476706967231621L138.80661395783227,0.7520777405065928L138.81069231703168,0.7478370003295822L142.7691724727256,0.655038776076708L146.0438477360858,0.8523577824780659L148.15804442742137,0.8656617911869944L155.37550434289187,0.4717658171257426L157.7484296700659,0.3386311614344777L160.0627749287487,0.12324695411962239L160.61576336011512,0.02253727562901986L164.44713465411314,0.33846484496552875L165.5780142252861,0.3800437993163541L166.83865977096775,0.5379576907512273L173.24397006598338,0.5349641063066883L176.18755671438612,0.574878426318719L177.28828114481712,0.5214929553394541L181.98877550140878,0.4529724960398198L187.373321923621,0.4458210377370051L192.20574502096406,0.3875279763974504L200.46157990578013,0.08798631040053806L206.8356227802733,0.06320392488669313L208.05857440002455,4.547473508864641e-13L213.53754101701998,0.14586686597385778L215.29247133893296,0.1791312665368423L221.45938300078433,0.1564283358134162L221.51437905664534,0.1564283358134162L221.74746346419033,0.17746805147635314L221.8251994622533,0.17372581567769885L225.13027703963962,0.3120204599954377L231.4086638529243,0.4616207582826064L240.9005505415862,0.5362114333638601L249.45972884014554,0.7237229229422155L249.65462497519093,0.727797378215655L250.63627367568097,0.742931041765587L251.4897012346928,0.7623053940101272L257.3281196010739,0.9022476426580397L261.07372176525496,0.9592046579687121L266.0567351863465,1.0342872026699297L266.34302364343876,1.0391097438782708L269.98116722206305,1.0387771549708305L270.9604677763482,1.0675460182005736L272.1800207634333,1.105793397632624L272.47557821870487,1.0810157790133417L272.5589374089968,1.0696246872275879L274.0669416194178,0.9900526541096042L277.7054559579674,0.9935448687574535L277.92068209568697,1.0364490320321238L285.4299918671586,1.123254065897072L287.3559043088135,1.2356661316357531L291.0468811770588,1.3466623889880793L300.6689663934776,1.3085830364575486L304.8216011643635,1.2751594488208866L312.13409920783033,1.317313043231934L312.2405073069276,1.3172299003804255L315.0240492534367,1.3665333833605473L324.05230065317846,1.3082504644848996L334.8700866347035,1.3633739833858272L337.3159280808868,1.3686950769924806L343.79563753462116,1.2414862179484771L354.94964097676257,1.1956736511392592L355.06643035381876,1.2454771305792747L355.0597566751303,11.184239482420253L355.12087026979043,21.547552884601828L355.0857716633518,31.890706594890617L355.12130282304133,32.39725727475752L355.047706977497,42.21382793240036L355.0232986156261,68.21583385461372L355.05468962279247,93.68027497798721L355.06247558126233,94.14172711640003L355.0625373745843,94.26878910575806L355.10900595212206,103.73897180251515L355.1674624339712,106.09635207277597L355.26676430113184,124.09269083703839L355.2526136305769,138.5435620266262L355.2526136305769,138.59121847721372L355.2509452109043,143.2671510332907L355.2508834175833,143.35387868476255L355.19273590234116,154.36370182461178L355.1859386370079,157.17308981132373L355.18958444296004,158.33175010757213L355.18241641769964,158.7712115005097L355.1612213085309,168.07370911900807L355.03151712734507,176.5396741726363L354.9775097646216,182.22155998251765L354.9839980633469,182.28773528138345L354.9335129199317,186.91209629897548L354.90749793170835,201.64034328048865L354.82247032174564,209.14629598576585L354.7412738976964,214.7611982587332L354.7239717677612,218.3109344056861L354.68627784183263,219.44027146158624L354.6805310629625,219.64010632173313L354.68046926964143,219.68028009315094L354.69727705300465,221.4440472932938L354.66013926696814,226.43949910975562L354.6599538870041,226.71502339308063L354.8629449471273,239.28196029912579L354.9523598828946,244.68465775904497L360.927712249043,249.94990861100177L380.4937022986587,267.287673277282L380.5315816045513,267.3184799839087L380.6322429247766,267.40820653149876L386.2711306570227,272.42366296867885L386.28107938173434,272.43299948258846L388.96352745477,274.7880000974528L388.96284772823765,274.78792100737064L393.5744214956312,278.9917413914445L393.937580844291,279.2692933266421L396.20502497218513,281.24092840604226L399.5518130413802,284.2748338686247L401.2989574048215,285.7854174190893L402.2890099969927,286.71545759673245L409.02349331401183,292.69690251384054L410.8044386241472,294.29849812928296L411.7191651577823,295.2116248774928L414.94971998980964,298.0547326968731L416.7480910165232,299.7484528631221L419.9182119804209,302.482972155437L421.59620961744804,303.9798497317938L425.51582177411,307.528341871669L430.90543524866007,312.475379454645L432.46689068191336,313.8065780780189L434.4619498499869,315.5926247922257L440.19155017774574,320.9139330347821L443.2584762952529,323.61673190627744L447.6458021000326,327.60762375919876L463.09481212509036,341.72713218739045L475.37672905898853,352.94830220587846L476.1424101019038,353.701687558088L476.1392586425227,353.7038718198646L480.0985421113928,357.2874499766467L484.4951987076747,361.4535266239509L486.26854343930245,362.899970253633L488.93807670820934,365.4181002789728L496.37601519370037,372.42043401310866L498.3378295549701,374.0944945082797L504.467232670856,379.88011324307445L506.97190135881556,382.13219146971596L509.44215116687155,384.4333769071304L509.4910914772572,384.4257721992367L517.166563489418,391.67966667617065L523.9551159624816,398.02629602685874L525.2607470459907,399.1616188927278L532.239808328296,405.69610753930874L536.2716371562465,409.5161820870999L540.3396768704188,413.27486571023746L568.6973734862449,440.06651230712896L571.237140780644,442.5050528875963L572.0187645004289,443.2062491485358L578.6858313040229,449.66741734010293L578.9617384831554,449.8510707850173L586.6862743923448,457.1820820541825L596.1810035737808,466.26850718320884L596.4043864298974,466.4629787374529L607.573096682484,477.2020207467267L608.8017332877862,478.37778745061314L611.2776062880703,480.6922131461638L617.5844798224243,486.8256832311895L621.387364395353,490.43113793110206L622.6415834356294,491.61164680617185L623.9591406301288,492.91909940080177L623.9888632176244,492.9467588360808L625.2133596704061,494.1009513242516L625.3090157316137,494.24059148070864L633.033551640804,501.74967829442176L638.4666676134748,506.9518080635621L638.8886542039081,507.43588964387845L638.9839395051904,507.5125120889411L639.6353029038974,508.1404300888885L639.7873762673553,508.2979884886281L645.2123355216281,513.544867981177L647.2145009216383,515.4845609651779L654.0576786906358,522.1876828153959L654.0904909441906,522.2016357059756L654.9111062496477,522.9953055529659L654.9713547378124,523.031699519473L656.2070357817302,524.2630526217963L657.6242656033173,525.5947302141476L657.9247665242847,525.9267517221156L661.2743352929319,529.1829571394792L667.5522895529675,535.392206884178L668.5864625764725,536.3712676634691L668.5925801152698,536.372402496444L676.0294681143014,543.6880937751603L676.0777286981547,543.7330550786751L686.6589698461476,554.122324557608L686.8496022420304,554.6763891453134L686.8952057130728,554.8915896601793L686.9060195442817,555.3244571462719L686.8508999017758,555.7284846745847L686.560471292164,556.6131500586907L686.5215414998102,556.9080606357115L686.5390908030313,557.3778826966268L686.7412785499773,557.9514831551974L686.85683206061,558.4415044694006L686.8594273801009,558.5749343131893L686.8604160732411,558.9032951550275L686.7094549895628,559.5105207726115L686.6441394490603,559.9642427959056L686.6451281421996,560.2188250591726L686.8110432096064,560.9255411454151L686.7909603802173,561.2713338768649L686.5099243554268,562.180821927941L686.4295930378748,562.6392448577781L686.4269359250629,562.8955250173894L686.5253108924044,563.7016610936048L686.574374789433,563.8608119770165L686.8030100778506,564.353227374896L687.2196824426628,564.8513269488581L687.4706251200323,565.0670773345523L688.4360221770467,565.6167738501499L688.6586017199879,565.7833297968382L689.1723513923953,566.2507468058652L689.5120292789998,566.6633967291355L689.8652399029461,567.3828521529058L690.1540618862064,568.19690971708L690.2704187100153,568.9159614617124L690.4903411401447,569.7777503795382L691.2539212101401,571.3157596968522L691.6228891309902,571.8409068839742L691.9811668072734,572.2221956366429L692.387643274089,572.5751809045396L693.0482756709744,573.0480278751329L693.2956961290356,573.3350879169152L693.4805817460474,573.5813759123475L693.5776590536443,573.7736617673877L693.851341673213,574.1066323482264L694.2423080164081,574.3444682949626L694.6705975256045,574.5200384697036L695.1342328145238,574.7674824868213L695.3715809612304,574.9369507661804L695.4362167751997,575.001158037664L695.6959341041784,575.4332993268085L695.9934071524067,575.6636421164749L696.2811786492084,575.7780585671494L696.504561505325,575.8194043355797L696.631979333627,575.8944274096189L696.7026090997506,576.0145526509173L696.8173592972089,576.2998220058089L696.8501097574408,576.7348043905486L697.0258499629181,577.5302766821542L697.2154318723415,577.9362410013578L697.5621541975606,578.5256762834128L697.629756090947,578.6900829990873L697.6645457307795,578.8911522186181L697.701930690102,579.0307547540992L697.8055580897444,579.2327145596005L697.846156301769,579.3642704171302L697.8596272457899,579.4958234942505L697.8576498595112,579.5824471605742L697.8055580897444,579.9068432083445L697.846156301769,580.087665256679L697.8596272457899,580.30138458688L697.995819725701,580.519077789851L698.3216559083576,580.8857136319598L698.4953569342351,581.187058461534L698.5677169133533,581.5092679846716L698.4916493349629,582.0132784061834L698.4994970867538,582.1152621439019L698.6638055278099,582.7697807713062L699.2873619319798,583.2814228819607L699.5620950380089,583.5958659638109L699.5544326661802,584.2051106054755L699.4918978251326,584.3174183370206L699.3581770780675,584.4386573673974L699.1982559628168,584.615294286421L699.2194510719864,584.6924634565112L699.2194510719864,585.0011305874054L699.6745588825816,585.8284963246329L700.7345615143458,586.6595795427097L701.7000821580041,588.6595342962178L702.2417006182695,589.6540584813779L702.4032901531918,590.6442996013543L702.40940769199,591.3366926346043L702.206849185116,591.9400086605001L702.1477747700546,592.2013075593063L702.1057553116425,592.7151760306215L702.1973948069726,593.5412956403061L702.1883729820784,593.6794463723531L702.0756619642207,594.1018253705906L701.8493748220089,594.7302065815393L701.8357802913451,594.8447984022923L701.8795299627509,595.0382282320452L702.3644221541608,595.6028952159013L702.5536950969781,595.7960768150688L702.6816072718502,595.8605193116546L703.3190053799672,595.7979501528207L703.7749782970586,595.6502544839204L704.6036267342715,595.5230131068824L704.7882651779992,595.523537664395L705.05119575968,595.628223476605L705.1983256574431,595.7747956588369L705.3418097492558,595.9836326088675L705.622289634156,596.5863507767881L706.0595391749257,596.6927420409866L706.4799191390084,596.9253729788684L707.1741671026239,597.3688087886553L707.5560498276045,597.7746834815193L707.7173303959207,598.0580610158222L707.7466822234883,598.5450838622146L707.8413495915584,598.7557758001144L707.9374999993361,598.880704609137L708.0524973700785,598.9767962368378L708.4661418621508,599.1410398548655L709.2439343960214,599.1905442688526L709.4419201971259,599.2771947752626L710.1573632699119,600.1180992991335L710.410097953596,600.2668877379128L710.6194537258016,600.4506407043L711.2983151524404,601.1242806370692L711.5818847033997,601.7047943298612L711.8030429999544,601.9287800880043L712.5651400302404,602.1874916502557L713.448290176746,602.2688608183344L713.966612554922,602.6616936190221L714.3088239676954,602.7918589707983L714.5813943074827,602.9565266220438L714.8431508160611,603.1720850158499L715.0942788733937,603.4959326135654L715.3438003043757,603.9050030099843L716.0606646235483,605.5250819990356L717.066412719304,606.4185618049764L717.230041433826,606.6197137654385L717.2371476657627,606.7913124667521L717.1526761956902,607.1721939704339L717.2249125881663,607.7166977362785L717.3679641267308,608.2948821636523L717.3064797721427,608.580177997123L717.329590474269,608.7776714083943L717.4471831645014,609.1823602215313L717.468254687029,609.3751241155742L717.4568229226079,609.5896399039193L717.3596220283698,609.7557743256448L717.1822751965428,609.8872133012082L716.8285702260273,609.8808582376018L716.6815021215853,609.8852694000802L716.2991868433583,609.9805946130869L716.0824776659301,609.9711743034295L715.9067374604538,609.9841085345033L715.7751794796313,610.074124064919L715.6950953353644,610.2125092157303L715.6490593110748,610.3499194431693L715.6114271784672,610.475664365923L715.4841329368082,610.62667456599L715.0773475033866,610.8076577578531L715.0030101379898,610.939074755715L714.9025341977285,611.1463611755453L714.8744182365854,611.2347903396785L714.7726446365787,611.3501276101242L713.9800834989428,612.0311200814235L712.9063009565534,613.1784978632022L712.6895299858043,613.4748554845801L712.4613272506349,613.6678615339338L711.9713062135652,613.9532874350903L711.8594603022038,614.0649138368085L711.818244156967,614.2044814139922L711.8750940124655,614.7930519836409L711.7457605912059,615.1688178357408L711.5800926970851,615.3135900304414L710.900551543913,615.5896788655687L710.6855725794794,615.859107795392L710.0707290335977,616.2918730449978L709.1978365784107,616.5623175662172L708.7652833300517,616.4174246785906L708.0220950560506,616.5384926243146L707.6814902696278,616.8225935899309L706.4826998384624,618.4616002139128L705.9530692825083,618.9200933648558L705.7183164552926,619.0601507412148L705.0054687019965,619.2635121005219L704.2676564469393,619.2319332884927L703.9599875007134,619.3317456842087L703.7534742212829,619.5327094577651L703.5045089301921,620.0441975875574L703.1263955978047,620.4175607338657L702.9548573381699,620.49652995715L702.3408171054652,620.6106529208942L701.6406369830147,621.0513019542923L700.9740724272933,620.9342762132446L700.690502876334,620.9426352666883L700.33580921268,621.0552575058518L700.0746088439928,621.2340010704065L699.7909157063896,621.5452043045166L699.4406093685402,622.0245914585921L699.3257973777618,622.3420982539233L698.9949559360894,622.6684681574193L698.9454594858125,622.7456185236019L698.8683414209627,623.3165317951357L698.7290592749905,623.8976882174793L698.6266677417716,624.9452760436143L698.6225893825731,625.2498077779783L698.672271212813,625.5186755521577L698.863706921873,626.0847148556404L698.8980022151345,626.4449698787535L698.8224907766362,627.1683262530996L698.6930337687345,627.5764593039648L698.5525157563388,627.8209984652431L698.3497718695016,628.0560602819892L697.9552215136773,628.3245851721676L697.6709104428628,628.4443069231588L697.4176196192884,628.4542215120914L697.277719540105,628.510428737713L697.1751426269229,628.6341723295882L697.1564810439213,628.7691693566449L697.1751426269229,628.9266746731109L697.3243734976058,629.320383553661L697.3337042891071,629.5116388205174L697.277719540105,629.6578714135226L697.2031350014231,629.7253966393687L696.9677024476741,629.7489483147751L696.8598731021902,629.792772085249L696.6617637144418,630.1532632606818L696.3670713656675,630.4227425373688L696.0242420196828,630.6584529801607L695.9699874836742,630.7389338289581L695.9227773862822,630.9204591005891L695.8185320534276,631.0863310938757L695.1843471980128,631.733384096432L694.885514696718,632.1093359511565L694.2870463809531,632.4464517742454L694.1842840878071,632.4631394729831L693.898242803999,632.3837235136962L693.518708225225,632.5687030492281L693.1060524262912,633.1502024287001L692.6859814288136,634.1308682898625L692.7163219495196,634.5890463258643L692.7971476136418,634.7697911388782L693.1242814560437,634.9483711909238L693.3111444593342,635.0527763822861L693.7391867952456,635.4067880429711L694.1669819578728,635.8852755692128L694.3494576353587,636.2571097767805L694.3888817742809,636.4276816167671L694.3846798284394,636.5761371826347L694.3401886371803,636.6634667435806L694.2020187709904,636.7781919879362L694.0307894779608,636.8630620219838L693.8701886361778,636.9943105510433L693.7778694143126,637.0916098929156L693.7202162456388,637.2167493943753L693.7086608945765,637.327965893619L693.7317098033809,637.466946558277L693.7778694143126,637.5920042240646L693.8586332851137,637.7588183836742L694.1079075428115,637.9852498703358L694.6101018641557,638.4319854909818L694.6684965526838,638.5707187163525L694.6918544280952,639.0931739511875L694.6380942386568,639.2601719471563L694.5298941332458,639.3701619907533L693.9715914762564,639.7897141055569L693.8394773555428,639.8282597178181L693.3624947092467,639.8016945235986L693.2240158764516,639.8850359370854L693.1202030968443,640.0657044627401L693.0624881348485,640.3018754244717L693.0493879507567,640.5765786849415L693.3001452481622,641.2795774664542L693.4317650223047,641.5244072409514L693.6136845599003,642.0856723779516L693.6442722538923,642.2639724851538L693.5971239498203,642.5131528300258L693.4747113805352,642.7401587841714L693.1999164811841,642.9475214946788L693.1449822186432,643.0388541455236L693.6366098820636,644.1908122435561L693.8442354412755,645.0182490682955L694.4402320241934,646.535953242691L694.577783957171,647.0908304608856L694.6101018641557,647.3943757914353L694.6012654192255,647.7944478526429L694.5075249509737,648.140319374188L694.3712088844186,648.4938261546758L694.1152609480323,649.0416969165726L694.2439764360806,649.1953568105732L694.4581520873389,649.3163205049041L694.6202359688314,649.4993220267038L694.7138528504402,649.7572092872115L694.8295917410369,649.934031747639L695.0905449364391,650.1605505011207L695.1933690229062,650.5115680978115L695.2368715210268,650.995012140354L695.1428220861699,651.698273128969L695.0952412288507,651.8136189528896L694.5697508254161,652.1017144508905L694.1114915554399,652.2309409983086L693.6972291301545,652.4395546562332L693.3977786956484,652.6321950335646L693.1615428287232,652.8694599836035L693.002981166539,653.1248348446024L692.9303740141359,653.4320285798335L692.9627537144424,653.7294808008214L693.0426524787454,653.9574983215402L693.1292867150596,654.1050259974108L693.2131402519199,654.2346574685098L693.2730797734794,654.3354058841846L693.3210313907257,654.4362269524781L693.333019295037,654.5802542895599L693.3210313907257,654.6953995824042L693.2850676777898,654.7674107351527L693.2131402519199,654.8825526546157L693.1292867150596,655.0697744786439L693.0094076719433,655.2857186112046L693.0213955762547,655.4728543920983L693.0813350978133,655.7319849746818L693.1532007303622,655.9335072246627L693.2131402519199,656.2214169395224L693.2131402519199,656.5525082120444L693.1172988107483,656.7684022501644L693.033383480567,656.9699660392257L693.0453713848783,657.3153407628965L693.1519030706168,657.6088278262696L693.2850676777898,657.7758608455665L693.3569951036598,657.9486029774916L693.3450071993493,658.1644498828964L693.2233361499175,658.3514272197549L693.0747850057669,658.5132472408013L692.3684255511971,659.6437215371475L692.3880140340152,660.4446067679933L692.6558880813918,661.2946356679581L692.6744878710715,661.3217789596579L693.2201228972153,662.1613842908228L693.3710839808928,662.4418956166123L693.3582309700851,662.5495588743238L692.282285661453,663.2724574403692L691.2387818464476,664.0628814801503L691.201149713841,664.1440534432718L691.1190881832945,664.6177213843703L691.1365756931928,665.0670435058346L691.1111786381816,665.1806661670998L690.5816098755477,665.7380032251235L690.3205948868244,665.8622116391298L689.9058999082908,665.942100982667L689.4257040092916,666.2394169578838L689.2208591495328,666.4624689979742L688.8668452124111,667.1137958482173L688.7166874419099,667.583391865784L688.5941512859818,667.7998034547709L688.2143077406017,668.2857953548828L687.9282664567954,668.5870029614593L687.2827734236016,669.6393407372675L687.2532980093911,669.7927289920194L687.3220121825607,670.3061197161387L687.0228089213379,671.3431445510155L686.8673987185348,671.7441655481452L686.5248783391553,672.1448653767361L686.0231783643812,672.5876644218488L685.6377116267722,672.8180470470843L685.4345351866859,672.8706815076412L685.0913350807732,672.8622422560511L684.1323645291632,672.4726180793145L683.2640447797439,672.4988997611449L682.7881126199054,672.7074466499917L682.7356500902124,672.786510581584L682.7170503005327,672.9324949864072L682.6613127248156,673.0172562156886L682.4125946070089,673.2063178489657L681.847432891369,673.2902612087455L681.2797376495573,673.2431079748708L681.0471475885843,673.3437800803749L680.957361892888,673.4535552932607L680.9417281826272,673.5269844638765L680.9567439596767,673.6538550671703L681.1062837969666,673.9175809906301L681.6791078844353,674.6963346552725L682.000062394718,675.0004981402476L682.0679114613886,675.1192734076103L682.0865112510692,675.2604688170727L682.0655633151846,675.5569098951191L682.5781389144877,676.7022903044422L682.6327024171032,677.0406120786647L682.6410445154643,677.3463662797553L682.4616585040385,678.4875823291545L682.1957618429396,679.1714901615542L682.027622215971,679.4928951135194L681.8527471169918,679.7009936824579L681.059877012749,680.3293159336226L680.671753162329,680.7999444216266L680.5903095649946,680.926080328079L680.5902477716754,681.0447463813503L681.082369781664,682.1059896019228L681.1805593690415,682.1870819548917L681.4150650229731,682.3219872115583L681.8277208219079,682.4561504634798L682.3420884275274,682.561557210106L682.8626353652662,682.7189988629602L683.4858828028291,682.9969885702449L683.724157849354,683.1779230569341L683.9388896405035,683.4297298902497L684.2250545109546,684.146590177259L684.2443958204876,684.292243500236L684.0959064696572,684.5066900527777L683.2484728628033,685.0705573899081L683.1659169856866,685.184196817344L683.1733321842312,685.2712352865146L683.5867295030184,686.034581859064L683.8730797534326,686.3757387609444L684.0966479895114,686.7300264270966L684.1493576924913,686.9060549639412L684.1438580869053,687.1923588673021L683.9982112288499,687.8135267691787L683.8327905080132,688.3590860081813L683.8680744944149,688.644439391021L684.0527129381435,689.4866163078805L684.0422080735416,689.685237406246L684.0131034192582,689.9782846849339L683.8151794114729,690.4789963807416L683.7401623195437,690.8496693586917L683.8340263744376,691.3493540155073L683.7950965820855,691.6024665940631L683.61626671055,691.9202273411111L683.4780968443592,692.4437419838168L683.3183611090726,692.8810173438314L683.1378628178654,693.1993057165914L682.7155672608251,693.6917990260067L682.2920976306814,694.9785691658235L682.1380468809439,695.6007607377214L682.0317005751685,696.1837252768223L682.0364586609021,696.6506197191916L682.1187055714108,696.8676072420008L682.22733823007,696.9493997707532L682.4476314201256,696.9997728346998L682.8515743607732,697.0102456627019L682.9801044688556,697.0426965716679L683.1981113060283,697.1717610798069L683.2242498808937,697.2578272415867L683.1803766228468,697.529956948586L683.19193197391,697.7553955961598L683.3234899547324,698.1353861576035L684.1079561672905,699.1527634592362L684.0580271637664,699.86338778644L684.1473185128916,700.2787857355679L684.3238002382213,700.567226566312L684.6786792818402,700.8676690710877L684.8481783618754,700.9588457574191L685.0017347650428,700.9592880017676L685.1256303740365,700.8737868677877L685.2979719468458,700.6318715271013L685.6710182268953,699.9200780876376L685.8576958502235,699.7623171137952L686.1269911439877,699.9102734285557L686.2548415255369,700.0285918219529L686.5862391071023,700.4904920888625L686.9506343221829,701.0781769320465L687.1054883850957,701.1972848002829L687.5379798401345,701.3619389869077L688.6362943310369,701.4940130976474L689.3306040879743,701.4337251369079L689.5033782140326,701.3808805840258L689.6403740071191,701.2860983424284L689.848061359653,700.9681328824213L690.0406711418154,700.7595379060058L690.2338370638681,700.6735181678573L690.4506080346173,700.6674738931997L691.5915599171449,700.8628043129697L692.5017755383342,700.9034912686539L693.4213219510239,701.0848841782072L693.6343853225007,701.1568945055528L693.9575643923463,701.4119093066492L694.1773632358336,701.6380975833099L694.4994918192178,702.1130747024622L694.7008762529895,702.5446878780444L694.89082892234,703.0787667367849L695.0441999455443,703.9946599286304L695.143254639419,704.8343302189378L695.2359446212095,705.2625954608693L695.3146693124108,705.4453398992814L695.4882467516445,705.5849911971322L695.581183906721,705.5804982431878L696.0328930846499,705.4244950655284L696.088383487082,705.306569500925L696.3516848286899,705.1958604201473L696.6710327126211,705.2774744825692L696.7914678956286,705.4074803283975L696.8764337122702,705.8077199754603L696.9006566941789,706.2633179930585L696.8723553530708,706.5838230592649L696.7868951898608,706.8526168391704L696.6806106774065,707.0985718325833L696.482315909695,707.4065915812816L696.2095601899446,707.7449326012406L696.0684242443358,708.0046958861212L696.0573014465217,708.1353835298501L696.1756356566084,708.6478746651569L696.3217768612321,708.9911571203679L696.5026459123674,709.2145055377891L697.07516103323,709.7640101661914L697.1244721035437,709.8705196329643L697.1690250881238,710.145654897638L697.1567900105283,710.5916761533604L696.9968688952777,712.2447798511762L696.9968688952777,712.2616295784956L697.0073119665594,712.5840469790328L696.79566984147,714.7655008879856L696.3679982654849,715.2406983466849L695.2418767800436,716.3736484418982L695.1079088596953,716.4443869566812L695.0743550862871,716.4596081377722L694.2469425154986,716.8788752303658L693.9273474582824,717.2448847272017L693.657372437985,717.6685860656753L693.6186280255961,717.8228997524452L693.5169162189104,717.9627273022902L693.0956093550103,718.3573453879162L692.9778312848139,718.564789678383L692.9213521892425,718.7338570517786L692.9165941035108,719.3720102344323L692.8742038851715,719.7821241869233L692.9113416712089,719.9775439924433L693.1206974434144,720.4910902847851L693.2187634441498,721.2392906435261L692.4625985726971,721.2499450101368L692.4545036476202,721.7743388437548L690.8958907071419,721.7932947065451L690.8921213145486,722.3263874971244L689.8275459770166,722.3246977732429L689.8245798975995,722.8664890590821L687.9143629595264,722.8980768626698L687.7861418180482,722.9294441354277L687.7267584363799,723.2719032717564L687.735903847918,723.3439628555043L687.5636240684289,723.358727259495L686.679176262177,723.167668892781L685.0988738659589,722.9507473497442L685.063033739666,722.9484701128999L684.5283361313741,722.919380179042L683.9352438345522,722.7730470362749L683.8400203265937,722.7439563229918L683.491135235131,722.6761509516332L683.2130034964375,722.6660131434569L682.5943905579616,722.1391928250473L682.4737082016709,722.0825484842203L682.4011010492668,722.0876178420867L682.166348222051,722.3790625837592L681.6222580289368,723.2011651109224L681.5440276843055,723.3944995828738L681.4280416204247,723.8428490515339L681.306432364313,724.0551873443242L663.9320660374906,725.4569174530006L635.2375958211551,727.8485739754019L599.3074984529185,731.0590090408432L595.0556854015167,731.4583414456779L594.4117372013525,731.5490920897578L589.1478731354318,732.0147104771513L568.7801765366457,733.964197941295L563.4408010322259,734.5131685544029L549.2219106521798,735.891772999913L544.8407023861964,736.3830353955509L543.7345401435014,736.4343515422524L538.7662335328532,736.9915458247492L536.5168948480668,737.182129016082ZM413.67276100733307,669.1444886589488L413.8321259826944,667.6295494174342L414.4265777325818,667.6552582147701L415.0107099978295,667.2604278940657L415.1380042394894,668.2026755683978L414.7985735261691,669.004640297971Z" class="state" fill="coral" stroke="#111" stroke-width="0.5"></path></g></svg>