<svg xmlns="http://www.w3.org/2000/svg" width="200" height="200" fill="none" viewBox="0 0 200 200"><path fill="url(#paint0_linear_104_86)" fill-rule="evenodd" d="M110 0c5.523 0 10 4.477 10 10v17.574c0 8.909 10.771 13.37 17.071 7.07l12.426-12.426c3.906-3.905 10.237-3.905 14.143 0l14.142 14.142c3.905 3.906 3.905 10.237 0 14.142L165.355 62.93c-6.299 6.3-1.838 17.071 7.071 17.071H190c5.523 0 10 4.477 10 10v20c0 5.523-4.477 10-10 10h-17.574c-8.909 0-13.37 10.771-7.071 17.071l12.427 12.426c3.905 3.906 3.905 10.237 0 14.143l-14.142 14.142c-3.906 3.905-10.237 3.905-14.143 0l-12.426-12.427c-6.3-6.299-17.071-1.838-17.071 7.071V190c0 5.523-4.477 10-10 10H90c-5.523 0-10-4.477-10-10v-17.574c0-8.909-10.771-13.37-17.071-7.071l-12.427 12.427c-3.905 3.905-10.236 3.905-14.142 0L22.218 163.64c-3.905-3.906-3.905-10.237 0-14.143l12.427-12.426c6.3-6.3 1.838-17.071-7.071-17.071H10c-5.523 0-10-4.477-10-10V90c0-5.523 4.477-10 10-10h17.574c8.909 0 13.37-10.771 7.07-17.071L22.219 50.502c-3.905-3.905-3.905-10.236 0-14.142L36.36 22.218c3.906-3.905 10.237-3.905 14.142 0L62.93 34.645c6.3 6.3 17.071 1.838 17.071-7.071V10c0-5.523 4.477-10 10-10h20Zm-10 150c27.614 0 50-22.386 50-50s-22.386-50-50-50-50 22.386-50 50 22.386 50 50 50Z" clip-rule="evenodd"></path><defs><linearGradient id="paint0_linear_104_86" x1="100" x2="100" y1="0" y2="200" gradientUnits="userSpaceOnUse"><stop stop-color="#B8DBFC"></stop><stop offset="1" stop-color="#F8FBFE"></stop></linearGradient></defs></svg>